<?xml version="1.0" standalone="no"?>
<!DOCTYPE svg PUBLIC "-//W3C//DTD SVG 20010904//EN"
 "http://www.w3.org/TR/2001/REC-SVG-20010904/DTD/svg10.dtd">
<svg version="1.0" xmlns="http://www.w3.org/2000/svg"
 width="256.000000pt" height="256.000000pt" viewBox="0 0 256.000000 256.000000"
 preserveAspectRatio="xMidYMid meet">
<metadata>
Created by potrace 1.14, written by Peter Selinger 2001-2017
</metadata>
<g transform="translate(0.000000,256.000000) scale(0.100000,-0.100000)"
fill="#000000" stroke="none">
<path d="M1155 2280 c-168 -21 -369 -106 -510 -213 -165 -126 -298 -342 -351
-572 -27 -114 -25 -340 4 -447 50 -186 128 -330 244 -453 153 -162 356 -271
572 -306 107 -17 319 -7 421 20 184 49 402 187 512 323 321 397 308 958 -32
1336 -198 220 -557 350 -860 312z m327 -169 c273 -71 485 -256 587 -512 43
-106 61 -203 61 -319 0 -236 -84 -437 -254 -605 -104 -103 -194 -158 -331
-204 -225 -75 -442 -58 -660 52 -529 265 -626 982 -187 1388 208 192 514 270
784 200z"/>
<path d="M845 1606 c-53 -24 -79 -61 -79 -114 0 -57 22 -94 69 -116 64 -31
130 -12 165 47 63 103 -47 233 -155 183z"/>
<path d="M1623 1613 c-33 -6 -79 -57 -87 -93 -16 -83 45 -160 129 -160 61 0
125 63 125 123 0 41 -24 91 -52 109 -28 18 -81 28 -115 21z"/>
<path d="M853 981 l-43 -27 44 -65 c116 -173 261 -248 456 -236 176 10 309 98
409 268 l22 37 -47 26 c-26 14 -49 26 -53 26 -3 0 -19 -20 -34 -44 -38 -60
-98 -113 -166 -145 -50 -23 -68 -26 -166 -26 -93 0 -118 3 -159 23 -67 31
-131 85 -169 143 -18 27 -36 48 -42 48 -5 0 -29 -13 -52 -28z"/>
</g>
</svg>
