<?xml version="1.0" standalone="no"?>
<!DOCTYPE svg PUBLIC "-//W3C//DTD SVG 20010904//EN"
 "http://www.w3.org/TR/2001/REC-SVG-20010904/DTD/svg10.dtd">
<svg version="1.0" xmlns="http://www.w3.org/2000/svg"
 width="256.000000pt" height="256.000000pt" viewBox="0 0 256.000000 256.000000"
 preserveAspectRatio="xMidYMid meet">
<metadata>
Created by potrace 1.14, written by Peter Selinger 2001-2017
</metadata>
<g transform="translate(0.000000,256.000000) scale(0.100000,-0.100000)"
fill="#000000" stroke="none">
<path d="M1190 2284 c-145 -17 -249 -48 -384 -117 -193 -98 -331 -238 -427
-434 -76 -154 -102 -265 -103 -443 -1 -109 4 -165 18 -225 41 -179 129 -345
255 -477 128 -135 287 -230 471 -280 74 -20 107 -23 260 -22 210 0 276 15 445
98 205 101 345 240 445 441 28 55 62 141 77 190 24 82 27 106 27 260 0 133 -3
184 -17 235 -86 311 -253 527 -512 659 -83 43 -196 83 -280 100 -59 11 -225
21 -275 15z m292 -173 c533 -138 803 -724 559 -1212 -53 -105 -95 -161 -181
-242 -216 -204 -546 -282 -826 -196 -314 97 -531 338 -598 661 -40 195 0 416
111 608 53 92 199 234 293 287 80 45 223 97 311 112 78 14 242 5 331 -18z"/>
<path d="M844 1606 c-127 -56 -93 -246 44 -246 137 0 182 193 57 246 -42 17
-61 17 -101 0z"/>
<path d="M1623 1613 c-36 -7 -80 -58 -88 -102 -13 -76 48 -151 123 -151 102 0
165 111 112 198 -30 48 -82 68 -147 55z"/>
<path d="M853 983 l-43 -24 23 -41 c34 -62 150 -181 204 -211 131 -71 326 -77
453 -12 68 34 139 96 183 157 74 106 74 102 21 132 -26 14 -49 26 -53 26 -3 0
-19 -20 -34 -44 -68 -109 -173 -168 -308 -174 -151 -7 -254 40 -339 155 -25
34 -49 61 -55 61 -5 0 -29 -11 -52 -25z"/>
</g>
</svg>
